<?xml version="1.0" standalone="no"?>
<!DOCTYPE svg PUBLIC "-//W3C//DTD SVG 1.0//EN" "http://www.w3.org/TR/2001/REC-SVG-20010904/DTD/svg10.dtd">
<svg xmlns="http://www.w3.org/2000/svg" xmlns:xlink="http://www.w3.org/1999/xlink" id="body_1" width="815" height="720">

<g transform="matrix(1 0 0 1 0 0)">
    <path d="M169 84C 169 72.95431 177.9543 64 189 64L189 64L661 64C 672.0457 64 681 72.95431 681 84L681 84L681 529C 681 540.0457 672.0457 549 661 549L661 549L189 549C 177.9543 549 169 540.0457 169 529L169 529L169 84z" stroke="none" fill="#F5F6F8" fill-rule="nonzero" />
    <path d="M169 84C 169 72.95431 177.9543 64 189 64L189 64L661 64C 672.0457 64 681 72.95431 681 84L681 84L681 529C 681 540.0457 672.0457 549 661 549L661 549L189 549C 177.9543 549 169 540.0457 169 529L169 529L169 84z" stroke="none" fill="#F5F6F8" fill-rule="nonzero" />
	<g>
        <path d="M699.71 203.714C 715.127 208.811 735.315 210.346 742.163 225.07C 748.962 239.688 733.256 254.946 730.96 270.904C 728.103 290.76 740.784 314.783 727.14 329.49C 713.75 343.924 689.196 340.88 669.968 336.649C 653.48 333.02 640.706 320.83 629.683 308.043C 620.925 297.884 617.624 284.939 614.211 271.969C 611.137 260.29 608.584 248.626 610.927 236.779C 613.431 224.113 617.226 210.333 627.849 202.995C 638.302 195.774 652.164 199.389 664.869 199.516C 676.859 199.636 688.325 199.95 699.71 203.714z" stroke="none" fill="#00E1F0" fill-rule="nonzero" />
        <path d="M261 89C 261 111.36754 253.09189 130.45941 237.27565 146.27565C 221.45943 162.09189 202.36754 170 180 170C 157.63248 170 138.54059 162.09189 122.72435 146.27565C 106.90812 130.45941 99 111.36754 99 89C 99 66.63247 106.90812 47.540585 122.72435 31.72435C 138.54059 15.908117 157.63248 8 180 8C 202.36754 8 221.45943 15.908117 237.27565 31.72435C 253.09189 47.540585 261 66.63247 261 89C 261 89.94258 260.98355 90.884865 260.95065 91.82686" stroke="none" fill="#FFD08A" fill-rule="nonzero" />
        <path d="M154.584 21.8514C 174.44 10.4296 198.832 18.6763 220.564 25.9177C 239.678 32.2868 256.319 43.1645 267.94 59.6229C 280.338 77.182 292.127 98.2336 286.216 118.9C 280.451 139.055 258.725 148.624 239.866 157.779C 223.601 165.675 206.41 168.024 188.404 166.384C 166.493 164.388 141.128 165.047 127.763 147.57C 113.866 129.396 118.857 104.051 123.631 81.6758C 128.501 58.8486 134.351 33.4895 154.584 21.8514z" stroke="none" fill="#3734A9" fill-rule="nonzero" />
        <path d="M173.584 378.038C 195.384 361.91 228.036 358.475 252.588 370.051C 275.563 380.882 271.976 416.978 291.255 433.515C 307.546 447.489 338.382 436.472 350.595 454.118C 362.775 471.717 355.407 496.343 348.819 516.687C 342.26 536.938 329.516 553.902 313.673 568.122C 296.314 583.702 277.222 597.896 254.183 601.626C 228.565 605.773 201.17 603.61 179.119 589.903C 156.287 575.709 139.695 552.238 132.912 526.24C 126.378 501.192 136.081 476.129 142.928 451.179C 150.1 425.045 151.795 394.157 173.584 378.038z" stroke="none" fill="#FDBC64" fill-rule="nonzero" />
	</g>
    <path d="M280 0L610 0L610 549L280 549z" stroke="none" fill="none" />
    <path d="M628.397 113.477C 629.989 113.851 631.497 113.617 632.924 112.795C 631.357 112.605 629.893 113.159 628.397 113.477zM641.052 98.0322C 641.16 103.227 639.596 107.051 637.479 110.641C 635.995 113.158 633.571 114.417 630.647 114.566C 628.158 114.693 625.706 114.499 623.331 113.596C 621.541 112.916 620.355 111.602 619.364 110.085C 617.523 107.264 615.361 104.548 615.287 100.961C 615.194 96.4831 616.116 92.2706 619.074 88.7346C 620.326 87.2377 621.813 86.2328 623.972 86.5696C 626.115 86.9038 626.98 89.5137 626.964 91.0773C 626.957 91.8009 626.353 92.1654 625.996 92.59C 624.374 94.5243 624.043 96.9453 623.278 99.2027C 623.12 99.6674 623.44 99.7954 623.797 99.8729C 626.108 100.375 628.207 100.227 629.778 98.1196C 630.612 97.0029 631.513 95.9442 632.064 94.6424C 632.326 94.0235 632.339 93.4561 632.108 92.7971C 631.836 92.0159 631.285 91.055 632.658 90.6275C 632.939 90.5401 632.882 90.3011 632.75 90.0725C 632.174 89.0726 632.507 88.0984 633.592 87.5711C 635.79 86.5029 639.205 88.455 639.417 90.8943C 639.44 91.1506 639.456 91.4485 639.592 91.6473C 641.118 93.869 640.819 96.4603 641.052 98.0322z" stroke="none" fill="#000000" fill-rule="nonzero" />
    <path d="M671.25 98.5986C 669.995 98.4026 668.773 98.4917 667.619 99.0326C 668.866 99.1892 670.108 99.3284 671.25 98.5986zM664.329 73.6293C 663.804 74.0836 663.074 73.8587 662.763 74.5094C 663.173 74.8226 663.55 74.3868 663.907 74.4643C 664.405 74.5728 665.426 74.3972 664.618 75.4642C 664.559 75.5433 664.419 75.6224 664.588 75.7057C 665.987 76.3965 664.94 77.285 664.72 78.0368C 664.492 78.8225 664.14 79.5751 664.121 80.4081C 664.096 81.5732 664.084 82.7388 664.1 83.9031C 664.119 85.3325 664.341 85.516 665.758 85.3814C 668.202 85.149 669.917 83.3874 669.858 80.9383C 669.809 78.9302 670.208 77.0087 670.66 75.0922C 670.893 74.1048 671.513 73.3132 672.61 73.1248C 673.902 72.9023 675.776 73.6972 676.258 74.8441C 677.068 76.7743 677.798 78.7691 678.085 80.8426C 678.651 84.9361 678.535 89.0193 677.387 93.0321C 676.939 94.599 676.328 96.1262 675.381 97.4193C 674.137 99.1196 672.267 99.8846 670.182 100.103C 667.548 100.378 665.01 100.292 662.807 98.4946C 662.325 98.1007 662.02 97.5862 661.692 97.1319C 659.529 94.1384 656.938 91.3264 656.425 87.4686C 655.834 83.0258 656.519 78.7645 658.807 74.8507C 659.601 73.4926 660.688 72.4728 662.446 72.6712C 663.164 72.7524 663.833 72.9653 664.329 73.6293z" stroke="none" fill="#000000" fill-rule="nonzero" />
    <path d="M655.127 134.233C 656.309 134.833 658.32 134.768 659.277 134.142C 657.898 134.066 656.582 133.966 655.127 134.233zM668.028 121.678C 668.142 125.493 667.045 129.322 664.481 132.688C 663.415 134.087 661.965 134.963 660.268 135.342C 657.353 135.993 654.516 135.72 651.802 134.408C 650.223 133.645 649.215 132.345 648.184 130.972C 646.268 128.42 645.322 125.471 644.527 122.49C 643.616 119.08 644.26 115.792 645.831 112.621C 646.372 111.53 646.741 110.433 647.862 109.78C 648.715 109.283 649.529 109.499 650.349 109.797C 650.545 109.869 650.851 110.103 650.835 110.226C 650.606 111.974 652.095 113.434 651.643 115.217C 651.467 115.907 651.372 116.619 651.262 117.325C 650.955 119.284 652.022 120.73 654.035 120.949C 655.995 121.162 657.714 120.564 658.923 118.96C 659.919 117.638 660.634 116.146 661.016 114.517C 661.332 113.165 662.399 112.438 663.777 112.644C 666.068 112.986 666.637 113.6 666.883 115.987C 666.898 116.135 666.89 116.32 666.975 116.42C 668.181 117.865 667.812 119.632 668.028 121.678z" stroke="none" fill="#000000" fill-rule="nonzero" />
    <path d="M699.563 81.1069C 700.349 81.3003 701.134 81.6159 701.859 81.0307C 701.084 80.9528 700.31 80.7548 699.563 81.1069zM697.98 64.0799C 699.668 64.6055 698.33 65.5971 698.336 66.3514C 698.339 66.7217 697.911 67.1404 698.316 67.5327C 698.71 67.9146 699.209 67.886 699.691 67.6926C 701.843 66.8298 703.007 65.0918 703.461 62.9574C 703.795 61.3892 704.344 59.8907 704.678 58.3275C 704.977 56.925 706.408 56.1823 707.819 56.5017C 709.505 56.8832 710.559 57.8031 710.793 59.5788C 711.07 61.6895 711.666 63.7278 711.603 65.9198C 711.456 71.0174 710.013 75.5955 706.849 79.6104C 703.897 83.3552 698.238 83.5179 695.2 79.8166C 694.214 78.6159 693.301 77.2382 693.122 75.5653C 693.093 75.2894 692.908 75.0165 692.753 74.7688C 690.156 70.65 690.424 66.4015 692.348 62.1779C 693.665 59.2876 695.93 59.4272 697.771 60.804C 698.001 60.9763 698.319 61.1817 698.266 61.511C 698.198 61.9339 697.776 61.7239 697.517 61.8117C 697.271 61.8954 696.931 61.9062 696.974 62.2549C 697.017 62.6194 697.363 62.5109 697.612 62.537C 698.063 62.5842 698.538 62.614 698.712 63.1467C 698.899 63.7208 698.248 63.7224 697.98 64.0799z" stroke="none" fill="#000000" fill-rule="nonzero" />
    <path d="M619.258 140.267C 619.011 140.632 619.167 140.956 619.534 140.992C 620.112 141.049 619.754 140.619 619.773 140.375C 619.801 140.026 619.964 140.247 620.138 140.279C 620.519 140.351 620.488 139.996 620.332 139.893C 620.073 139.723 619.714 139.583 619.419 139.617C 619.071 139.657 619.165 139.999 619.258 140.267zM617.808 144.837C 616.926 144.564 615.92 145.625 615.381 144.245C 615.378 144.842 615.028 145.725 615.722 145.69C 616.355 145.657 617.308 145.712 617.808 144.837zM623.124 141.624C 623.778 142.013 623.908 141.207 624.599 141.241C 623.664 141.971 623.127 142.766 622.763 143.766C 622.522 144.427 621.52 144.829 620.88 145.143C 618.614 146.252 616.172 146.991 613.615 147.063C 612.84 147.085 612.093 146.6 611.28 146.544C 611.028 146.527 610.791 146.322 610.809 146.005C 610.813 145.926 610.953 145.782 611.011 145.791C 611.478 145.866 611.806 145.827 611.575 145.224C 611.472 144.955 611.51 144.582 611.151 144.482C 610.521 144.305 611.016 145.199 610.531 145.157C 610.068 145.55 610.673 143.62 609.833 144.855C 609.78 144.813 609.701 144.781 609.678 144.726C 609.179 143.524 608.01 142.855 607.359 141.728C 606.74 140.656 605.944 139.685 605.476 138.506C 604.07 134.966 603.625 131.322 604.329 127.576C 604.696 125.627 605.932 124.834 607.717 125.181C 608.328 125.299 608.8 125.605 609.043 126.126C 609.963 128.097 611.349 129.931 610.629 132.364C 610.406 133.117 610.834 133.921 611.369 134.537C 611.7 134.916 612.104 135.143 612.664 134.857C 613.733 134.311 614.796 133.788 615.552 132.79C 616.092 132.077 616.736 131.443 617.311 130.755C 618.106 129.806 618.323 128.6 618.411 127.458C 618.547 125.718 619.668 124.902 621.293 125.635C 621.953 125.934 622.597 126.379 622.875 127.03C 623.612 128.753 624.449 130.408 624.847 132.306C 625.235 134.159 625.346 135.959 625.252 137.812C 625.211 138.618 624.693 139.319 624.765 140.163C 624.778 140.319 624.417 140.642 624.211 140.657C 623.546 140.707 623.505 141.299 623.124 141.624z" stroke="none" fill="#000000" fill-rule="nonzero" />
    <path d="M689.342 107.624C 688.658 108.33 688.456 108.398 688.225 107.949C 687.914 107.341 687.023 107.134 686.563 107.574C 686.281 107.844 686.286 108.196 686.531 108.448C 686.91 108.84 689.133 108.206 689.342 107.624zM691.119 116.07C 690.689 115.665 689.98 115.949 689.76 115.672C 688.99 114.703 688.474 115.895 687.825 115.82C 687.711 115.807 687.275 116.228 687.4 116.521C 687.528 116.818 688.082 117.049 688.243 116.911C 689.071 116.201 690.196 116.621 691.119 116.07zM688.715 111.496C 688.258 111.489 687.725 111.504 687.651 112.128C 687.564 112.864 688.242 112.532 688.577 112.692C 688.993 112.891 689.362 112.498 689.707 112.618C 690.083 112.748 690.311 112.638 690.447 112.361C 690.645 111.958 690.275 111.668 690.109 111.366C 689.933 111.047 689.641 111.286 689.429 111.398C 689.212 111.513 689.051 111.795 688.715 111.496zM697.853 99.8317C 698.441 100.081 698.936 100.388 699.027 100.983C 699.097 101.446 698.558 101.208 698.297 101.51C 699.542 101.539 699.295 102.634 699.164 103.088C 698.816 104.285 699.257 105.43 699.117 106.599C 699.025 107.368 698.848 108.146 698.784 108.924C 698.718 109.73 698.178 108.619 697.759 108.677C 697.539 108.917 697.555 109.169 697.837 109.312C 698.126 109.459 698.639 109.429 698.598 109.837C 698.549 110.332 698.406 111.091 698.083 111.232C 697.214 111.611 697.415 112.474 697.468 112.873C 697.584 113.734 697.19 113.629 696.733 113.499C 696.071 113.312 695.674 113.523 695.541 114.165C 695.371 114.984 694.45 114.849 694.039 115.426C 693.636 115.992 693.004 116.391 693.059 117.237C 691.922 117.101 692.448 116.099 691.997 115.491C 691.836 117.477 690.369 117.443 689.039 117.591C 688.598 117.641 688.097 117.471 687.71 117.622C 686.896 117.937 686.956 117.544 687.161 116.802C 686.708 117.686 686.289 117.987 685.651 117.252C 685.419 116.986 685.036 117.026 684.708 116.953C 684.104 116.818 684.03 116.677 684.047 115.899C 684.051 115.68 683.912 115.703 683.778 115.641C 682.392 115.006 681.79 113.846 681.78 112.326C 681.775 111.603 682.071 110.449 680.643 110.525C 680.446 110.535 680.407 110.385 680.343 110.25C 679.032 107.46 679.459 104.777 680.934 102.21C 681.615 101.025 683.357 100.436 684.682 100.901C 685.115 101.054 685.58 101.466 685.764 101.879C 685.947 102.288 685.487 102.452 685.067 102.506C 684.74 102.548 684.841 102.828 684.911 103.043C 685.027 103.403 685.271 103.496 685.614 103.369C 686.451 103.059 686.639 103.197 686.541 104.189C 686.47 104.916 687.505 105.205 688.084 105.598C 688.477 105.865 688.686 105.293 688.802 104.965C 688.886 104.728 689.015 104.551 689.205 104.454C 691.038 103.515 691.24 101.718 691.524 99.9928C 691.657 99.1839 691.677 98.312 691.834 97.5469C 691.993 96.7711 692.238 95.9581 692.441 95.1582C 692.766 93.8763 693.822 93.8353 694.834 93.8924C 695.488 93.9293 696.135 94.1546 696.774 94.3377C 696.928 94.382 697.16 94.6057 697.146 94.7217C 697.023 95.7303 698.204 96.4506 697.72 97.583C 697.598 97.8688 697.989 98.4387 698.245 98.8094C 698.73 99.5127 698.748 99.5351 697.853 99.8317z" stroke="none" fill="#000000" fill-rule="nonzero" />
    <path d="M648.747 78.8494C 647.83 79.264 647.185 79.7333 646.8 80.5016C 647.429 80.0141 648.481 80.0141 648.747 78.8494zM645.171 65.2251C 646.023 65.0664 646.439 64.5595 646.918 64.1701C 647.845 63.4146 648.603 63.6557 648.878 64.8714C 648.997 65.3986 649.026 65.6923 649.743 65.8385C 650.451 65.9831 650.609 66.9937 650.93 67.6511C 651.92 69.679 652.3 71.8581 652.171 74.0981C 652 77.0861 650.514 79.3274 648.069 80.9937C 646.949 81.7575 645.797 82.2073 644.384 82.0412C 643.712 81.9621 643.325 81.533 642.807 81.2754C 641.025 80.3906 639.185 79.6244 637.521 78.4982C 635.731 77.287 633.648 72.7511 634.521 70.3463C 635.08 68.805 636.023 67.876 637.59 67.55C 638.491 67.3624 638.903 67.7364 638.969 68.8386C 639.453 68.4981 639.688 68.1025 639.822 67.5728C 640.136 66.3322 640.597 65.1456 641.18 63.9982C 641.872 62.6359 643.021 61.9707 644.435 61.6373C 644.991 61.5064 645.545 61.5756 645.882 62.0192C 646.21 62.4499 646.182 62.9706 645.884 63.4916C 645.609 63.9725 645.453 64.5214 645.171 65.2251z" stroke="none" fill="#000000" fill-rule="nonzero" />
    <path d="M671.072 55.341C 671.772 53.7537 672.089 52.1152 673.324 50.9579C 673.514 50.7806 673.679 50.5495 673.902 50.4414C 674.435 50.1842 675.11 49.7666 675.571 50.1639C 675.97 50.5085 675.905 51.2366 675.702 51.829C 675.603 52.1135 675.24 52.5041 675.657 52.7141C 676.01 52.891 676.211 52.4341 676.437 52.1993C 676.567 52.0634 676.664 51.8948 676.8 51.7677C 677.054 51.5303 677.177 51.0163 677.656 51.206C 678.038 51.3568 678.376 51.6322 678.432 52.1015C 678.484 52.5368 678.48 52.9419 679.158 52.647C 679.502 52.4971 679.744 52.9444 679.931 53.1971C 681.995 55.9879 682.422 58.8753 679.739 61.7197C 678.919 62.5891 678.076 63.4369 677.244 64.296C 676.788 64.7682 676.233 64.762 675.678 64.5652C 675.053 64.3432 675.727 63.8358 675.448 63.4295C 674.812 64.4522 674.2 64.3163 673.386 63.5786C 672.881 63.1217 672.277 62.5506 671.327 62.9329C 670.978 63.0737 670.312 62.6852 669.904 62.3849C 667.859 60.8801 666.628 58.8882 666.58 56.2961C 666.561 55.2681 666.898 54.3564 667.938 53.8933C 668.137 53.8047 668.539 53.7028 668.555 53.7372C 669.031 54.8095 670.421 54.3813 671.072 55.341z" stroke="none" fill="#000000" fill-rule="nonzero" />
	<g>
        <path d="M89 363C 89 357.47714 93.47715 353 99 353L99 353L322 353C 327.52286 353 332 357.47714 332 363L332 363L332 511C 332 516.5228 327.52286 521 322 521L322 521L99 521C 93.47715 521 89 516.5228 89 511L89 511L89 363z" stroke="none" fill="#FFFFFF" fill-rule="nonzero" fill-opacity="0.8" />
	</g>
    <path d="M107.965 385L107.965 375.907L104.444 375.907L104.444 374.92L112.515 374.92L112.515 375.907L108.994 375.907L108.994 385L107.965 385zM115.673 385.21C 114.922 385.21 114.28 385.04 113.748 384.699C 113.216 384.358 112.808 383.887 112.523 383.285C 112.238 382.683 112.096 381.992 112.096 381.213C 112.096 380.42 112.241 379.724 112.53 379.127C 112.819 378.53 113.23 378.065 113.762 377.734C 114.299 377.398 114.936 377.23 115.673 377.23C 116.429 377.23 117.073 377.4 117.605 377.741C 118.142 378.077 118.55 378.546 118.83 379.148C 119.115 379.745 119.257 380.434 119.257 381.213C 119.257 382.006 119.115 382.704 118.83 383.306C 118.545 383.903 118.135 384.37 117.598 384.706C 117.061 385.042 116.42 385.21 115.673 385.21zM115.673 384.223C 116.513 384.223 117.138 383.945 117.549 383.39C 117.96 382.83 118.165 382.104 118.165 381.213C 118.165 380.298 117.957 379.57 117.542 379.029C 117.131 378.488 116.508 378.217 115.673 378.217C 115.108 378.217 114.642 378.345 114.273 378.602C 113.909 378.854 113.636 379.206 113.454 379.659C 113.277 380.107 113.188 380.625 113.188 381.213C 113.188 382.123 113.398 382.853 113.818 383.404C 114.238 383.95 114.856 384.223 115.673 384.223zM124.917 385C 124.493 385.089 124.073 385.124 123.657 385.105C 123.247 385.086 122.878 384.998 122.551 384.839C 122.229 384.68 121.984 384.433 121.816 384.097C 121.681 383.817 121.606 383.535 121.592 383.25C 121.583 382.961 121.578 382.632 121.578 382.263L121.578 382.263L121.578 375.34L122.6 375.34L122.6 382.221C 122.6 382.538 122.603 382.804 122.607 383.019C 122.617 383.229 122.666 383.416 122.754 383.579C 122.922 383.892 123.188 384.078 123.552 384.139C 123.921 384.2 124.376 384.186 124.917 384.097L124.917 384.097L124.917 385zM119.961 378.322L119.961 377.44L124.917 377.44L124.917 378.322L119.961 378.322zM128.57 385.21C 128 385.21 127.522 385.107 127.135 384.902C 126.752 384.697 126.465 384.424 126.274 384.083C 126.082 383.742 125.987 383.371 125.987 382.97C 125.987 382.559 126.068 382.209 126.232 381.92C 126.4 381.626 126.626 381.386 126.911 381.199C 127.2 381.012 127.534 380.87 127.912 380.772C 128.294 380.679 128.717 380.597 129.179 380.527C 129.645 380.452 130.1 380.389 130.544 380.338C 130.992 380.282 131.384 380.228 131.72 380.177L131.72 380.177L131.356 380.401C 131.37 379.654 131.225 379.101 130.922 378.742C 130.618 378.383 130.091 378.203 129.34 378.203C 128.822 378.203 128.383 378.32 128.024 378.553C 127.669 378.786 127.419 379.155 127.275 379.659L127.275 379.659L126.274 379.365C 126.446 378.688 126.794 378.163 127.317 377.79C 127.839 377.417 128.518 377.23 129.354 377.23C 130.044 377.23 130.63 377.361 131.111 377.622C 131.596 377.879 131.939 378.252 132.14 378.742C 132.233 378.961 132.294 379.206 132.322 379.477C 132.35 379.748 132.364 380.023 132.364 380.303L132.364 380.303L132.364 385L131.447 385L131.447 383.103L131.713 383.215C 131.456 383.864 131.057 384.358 130.516 384.699C 129.974 385.04 129.326 385.21 128.57 385.21zM128.689 384.321C 129.169 384.321 129.589 384.235 129.949 384.062C 130.308 383.889 130.597 383.654 130.817 383.355C 131.036 383.052 131.178 382.711 131.244 382.333C 131.3 382.09 131.33 381.824 131.335 381.535C 131.339 381.241 131.342 381.022 131.342 380.877L131.342 380.877L131.734 381.08C 131.384 381.127 131.003 381.173 130.593 381.22C 130.187 381.267 129.785 381.32 129.389 381.381C 128.997 381.442 128.642 381.514 128.325 381.598C 128.11 381.659 127.902 381.745 127.702 381.857C 127.501 381.964 127.335 382.109 127.205 382.291C 127.079 382.473 127.016 382.699 127.016 382.97C 127.016 383.189 127.069 383.402 127.177 383.607C 127.289 383.812 127.466 383.983 127.709 384.118C 127.956 384.253 128.283 384.321 128.689 384.321zM134.326 385L134.326 374.71L135.355 374.71L135.355 385L134.326 385zM140.256 385L140.256 374.92L144.148 374.92C 144.713 374.92 145.205 375.037 145.625 375.27C 146.045 375.503 146.372 375.818 146.605 376.215C 146.839 376.607 146.955 377.041 146.955 377.517C 146.955 378.058 146.811 378.541 146.521 378.966C 146.232 379.386 145.845 379.678 145.359 379.841L145.359 379.841L145.345 379.498C 145.999 379.685 146.512 380.011 146.885 380.478C 147.259 380.945 147.445 381.509 147.445 382.172C 147.445 382.755 147.322 383.259 147.074 383.684C 146.827 384.104 146.479 384.428 146.031 384.657C 145.583 384.886 145.063 385 144.47 385L144.47 385L140.256 385zM141.292 384.013L144.218 384.013C 144.629 384.013 144.998 383.941 145.324 383.796C 145.651 383.647 145.908 383.437 146.094 383.166C 146.286 382.895 146.381 382.569 146.381 382.186C 146.381 381.813 146.295 381.477 146.122 381.178C 145.95 380.879 145.714 380.641 145.415 380.464C 145.121 380.282 144.785 380.191 144.407 380.191L144.407 380.191L141.292 380.191L141.292 384.013zM141.292 379.218L144.141 379.218C 144.463 379.218 144.757 379.146 145.023 379.001C 145.289 378.852 145.499 378.649 145.653 378.392C 145.812 378.135 145.891 377.839 145.891 377.503C 145.891 377.027 145.726 376.64 145.394 376.341C 145.068 376.042 144.65 375.893 144.141 375.893L144.141 375.893L141.292 375.893L141.292 379.218zM151.005 385.21C 150.436 385.21 149.958 385.107 149.57 384.902C 149.188 384.697 148.901 384.424 148.709 384.083C 148.518 383.742 148.422 383.371 148.422 382.97C 148.422 382.559 148.504 382.209 148.667 381.92C 148.835 381.626 149.062 381.386 149.346 381.199C 149.636 381.012 149.969 380.87 150.347 380.772C 150.73 380.679 151.152 380.597 151.614 380.527C 152.081 380.452 152.536 380.389 152.979 380.338C 153.427 380.282 153.819 380.228 154.155 380.177L154.155 380.177L153.791 380.401C 153.805 379.654 153.661 379.101 153.357 378.742C 153.054 378.383 152.527 378.203 151.775 378.203C 151.257 378.203 150.819 378.32 150.459 378.553C 150.105 378.786 149.855 379.155 149.71 379.659L149.71 379.659L148.709 379.365C 148.882 378.688 149.23 378.163 149.752 377.79C 150.275 377.417 150.954 377.23 151.789 377.23C 152.48 377.23 153.066 377.361 153.546 377.622C 154.032 377.879 154.375 378.252 154.575 378.742C 154.669 378.961 154.729 379.206 154.757 379.477C 154.785 379.748 154.799 380.023 154.799 380.303L154.799 380.303L154.799 385L153.882 385L153.882 383.103L154.148 383.215C 153.892 383.864 153.493 384.358 152.951 384.699C 152.41 385.04 151.761 385.21 151.005 385.21zM151.124 384.321C 151.605 384.321 152.025 384.235 152.384 384.062C 152.744 383.889 153.033 383.654 153.252 383.355C 153.472 383.052 153.614 382.711 153.679 382.333C 153.735 382.09 153.766 381.824 153.77 381.535C 153.775 381.241 153.777 381.022 153.777 380.877L153.777 380.877L154.169 381.08C 153.819 381.127 153.439 381.173 153.028 381.22C 152.622 381.267 152.221 381.32 151.824 381.381C 151.432 381.442 151.078 381.514 150.76 381.598C 150.546 381.659 150.338 381.745 150.137 381.857C 149.937 381.964 149.771 382.109 149.64 382.291C 149.514 382.473 149.451 382.699 149.451 382.97C 149.451 383.189 149.505 383.402 149.612 383.607C 149.724 383.812 149.902 383.983 150.144 384.118C 150.392 384.253 150.718 384.321 151.124 384.321zM156.762 385L156.762 374.71L157.791 374.71L157.791 385L156.762 385zM162.052 385.21C 161.483 385.21 161.005 385.107 160.617 384.902C 160.235 384.697 159.948 384.424 159.756 384.083C 159.565 383.742 159.469 383.371 159.469 382.97C 159.469 382.559 159.551 382.209 159.714 381.92C 159.882 381.626 160.109 381.386 160.393 381.199C 160.683 381.012 161.016 380.87 161.394 380.772C 161.777 380.679 162.199 380.597 162.661 380.527C 163.128 380.452 163.583 380.389 164.026 380.338C 164.474 380.282 164.866 380.228 165.202 380.177L165.202 380.177L164.838 380.401C 164.852 379.654 164.708 379.101 164.404 378.742C 164.101 378.383 163.574 378.203 162.822 378.203C 162.304 378.203 161.866 378.32 161.506 378.553C 161.152 378.786 160.902 379.155 160.757 379.659L160.757 379.659L159.756 379.365C 159.929 378.688 160.277 378.163 160.799 377.79C 161.322 377.417 162.001 377.23 162.836 377.23C 163.527 377.23 164.113 377.361 164.593 377.622C 165.079 377.879 165.422 378.252 165.622 378.742C 165.716 378.961 165.776 379.206 165.804 379.477C 165.832 379.748 165.846 380.023 165.846 380.303L165.846 380.303L165.846 385L164.929 385L164.929 383.103L165.195 383.215C 164.939 383.864 164.54 384.358 163.998 384.699C 163.457 385.04 162.808 385.21 162.052 385.21zM162.171 384.321C 162.652 384.321 163.072 384.235 163.431 384.062C 163.791 383.889 164.08 383.654 164.299 383.355C 164.519 383.052 164.661 382.711 164.726 382.333C 164.782 382.09 164.813 381.824 164.817 381.535C 164.822 381.241 164.824 381.022 164.824 380.877L164.824 380.877L165.216 381.08C 164.866 381.127 164.486 381.173 164.075 381.22C 163.669 381.267 163.268 381.32 162.871 381.381C 162.479 381.442 162.125 381.514 161.807 381.598C 161.593 381.659 161.385 381.745 161.184 381.857C 160.984 381.964 160.818 382.109 160.687 382.291C 160.561 382.473 160.498 382.699 160.498 382.97C 160.498 383.189 160.552 383.402 160.659 383.607C 160.771 383.812 160.949 383.983 161.191 384.118C 161.439 384.253 161.765 384.321 162.171 384.321zM173.128 385L173.128 381.143C 173.128 380.723 173.089 380.338 173.009 379.988C 172.93 379.633 172.802 379.325 172.624 379.064C 172.452 378.798 172.225 378.593 171.945 378.448C 171.67 378.303 171.334 378.231 170.937 378.231C 170.573 378.231 170.251 378.294 169.971 378.42C 169.696 378.546 169.463 378.728 169.271 378.966C 169.085 379.199 168.942 379.484 168.844 379.82C 168.746 380.156 168.697 380.539 168.697 380.968L168.697 380.968L167.969 380.807C 167.969 380.032 168.105 379.381 168.375 378.854C 168.646 378.327 169.019 377.928 169.495 377.657C 169.971 377.386 170.517 377.251 171.133 377.251C 171.586 377.251 171.98 377.321 172.316 377.461C 172.657 377.601 172.944 377.79 173.177 378.028C 173.415 378.266 173.607 378.539 173.751 378.847C 173.896 379.15 174.001 379.475 174.066 379.82C 174.132 380.161 174.164 380.501 174.164 380.842L174.164 380.842L174.164 385L173.128 385zM167.661 385L167.661 377.44L168.592 377.44L168.592 379.302L168.697 379.302L168.697 385L167.661 385zM179.076 385.21C 178.315 385.21 177.671 385.04 177.144 384.699C 176.617 384.358 176.215 383.889 175.94 383.292C 175.669 382.69 175.529 381.999 175.52 381.22C 175.529 380.427 175.674 379.731 175.954 379.134C 176.234 378.532 176.638 378.065 177.165 377.734C 177.692 377.398 178.332 377.23 179.083 377.23C 179.848 377.23 180.513 377.417 181.078 377.79C 181.647 378.163 182.037 378.674 182.247 379.323L182.247 379.323L181.239 379.645C 181.062 379.192 180.779 378.842 180.392 378.595C 180.009 378.343 179.571 378.217 179.076 378.217C 178.521 378.217 178.061 378.345 177.697 378.602C 177.333 378.854 177.062 379.206 176.885 379.659C 176.708 380.112 176.617 380.632 176.612 381.22C 176.621 382.125 176.831 382.853 177.242 383.404C 177.653 383.95 178.264 384.223 179.076 384.223C 179.589 384.223 180.026 384.106 180.385 383.873C 180.749 383.635 181.024 383.29 181.211 382.837L181.211 382.837L182.247 383.145C 181.967 383.817 181.556 384.33 181.015 384.685C 180.474 385.035 179.827 385.21 179.076 385.21zM186.686 385.21C 185.949 385.21 185.309 385.047 184.768 384.72C 184.231 384.393 183.814 383.934 183.515 383.341C 183.216 382.748 183.067 382.053 183.067 381.255C 183.067 380.429 183.214 379.715 183.508 379.113C 183.802 378.511 184.215 378.047 184.747 377.72C 185.284 377.393 185.916 377.23 186.644 377.23C 187.391 377.23 188.028 377.403 188.555 377.748C 189.082 378.089 189.481 378.579 189.752 379.218C 190.023 379.857 190.146 380.62 190.123 381.507L190.123 381.507L189.073 381.507L189.073 381.143C 189.054 380.163 188.842 379.423 188.436 378.924C 188.035 378.425 187.447 378.175 186.672 378.175C 185.86 378.175 185.237 378.439 184.803 378.966C 184.374 379.493 184.159 380.245 184.159 381.22C 184.159 382.172 184.374 382.912 184.803 383.439C 185.237 383.962 185.851 384.223 186.644 384.223C 187.185 384.223 187.657 384.099 188.058 383.852C 188.464 383.6 188.784 383.238 189.017 382.767L189.017 382.767L189.976 383.138C 189.677 383.796 189.236 384.307 188.653 384.671C 188.074 385.03 187.419 385.21 186.686 385.21zM183.795 381.507L183.795 380.646L189.57 380.646L189.57 381.507L183.795 381.507z" stroke="none" fill="#000000" fill-rule="nonzero" />
    <path d="M109.136 413.592L109.136 411.696L111.064 411.696L111.064 413.592L109.136 413.592zM109.136 400.792L109.136 398.896L111.064 398.896L111.064 400.792L109.136 400.792zM110.144 412.24C 109.333 412.24 108.608 412.091 107.968 411.792C 107.328 411.493 106.803 411.072 106.392 410.528C 105.987 409.984 105.728 409.339 105.616 408.592L105.616 408.592L107.52 408.288C 107.669 408.944 107.989 409.467 108.48 409.856C 108.976 410.24 109.568 410.432 110.256 410.432C 110.917 410.432 111.461 410.277 111.888 409.968C 112.315 409.653 112.528 409.256 112.528 408.776C 112.528 408.44 112.427 408.168 112.224 407.96C 112.021 407.747 111.696 407.571 111.248 407.432L111.248 407.432L108.472 406.568C 106.856 406.067 106.048 405.085 106.048 403.624C 106.048 402.941 106.211 402.347 106.536 401.84C 106.867 401.328 107.331 400.936 107.928 400.664C 108.525 400.387 109.229 400.251 110.04 400.256C 110.792 400.261 111.461 400.397 112.048 400.664C 112.64 400.931 113.131 401.315 113.52 401.816C 113.915 402.317 114.195 402.92 114.36 403.624L114.36 403.624L112.384 403.984C 112.309 403.605 112.163 403.272 111.944 402.984C 111.725 402.696 111.451 402.472 111.12 402.312C 110.789 402.152 110.421 402.067 110.016 402.056C 109.627 402.051 109.277 402.112 108.968 402.24C 108.659 402.363 108.413 402.539 108.232 402.768C 108.051 402.992 107.96 403.245 107.96 403.528C 107.96 403.843 108.085 404.112 108.336 404.336C 108.592 404.56 108.995 404.752 109.544 404.912L109.544 404.912L111.616 405.512C 112.613 405.8 113.331 406.192 113.768 406.688C 114.211 407.179 114.432 407.832 114.432 408.648C 114.432 409.363 114.253 409.989 113.896 410.528C 113.539 411.067 113.037 411.488 112.392 411.792C 111.747 412.091 110.997 412.24 110.144 412.24zM120.951 412L120.951 410.096L115.847 410.096L115.847 408.296L119.535 400.48L121.735 400.48L118.047 408.296L120.951 408.296L120.951 405.296L122.903 405.296L122.903 408.296L123.983 408.296L123.983 410.096L122.903 410.096L122.903 412L120.951 412zM125.429 414.04L125.541 413.208C 125.786 413.229 125.981 413.187 126.125 413.08C 126.269 412.979 126.365 412.832 126.413 412.64C 126.466 412.453 126.479 412.24 126.453 412L126.453 412L125.429 412L125.429 409.944L127.405 409.944L127.405 412.08C 127.405 412.779 127.239 413.307 126.909 413.664C 126.578 414.021 126.085 414.147 125.429 414.04zM130.128 411.984L130.128 410.304L135.056 405.912C 135.44 405.571 135.707 405.248 135.856 404.944C 136.005 404.64 136.08 404.347 136.08 404.064C 136.08 403.68 135.997 403.339 135.832 403.04C 135.667 402.736 135.437 402.496 135.144 402.32C 134.856 402.144 134.523 402.056 134.144 402.056C 133.744 402.056 133.389 402.149 133.08 402.336C 132.776 402.517 132.539 402.76 132.368 403.064C 132.197 403.368 132.117 403.696 132.128 404.048L132.128 404.048L130.144 404.048C 130.144 403.28 130.315 402.611 130.656 402.04C 131.003 401.469 131.477 401.027 132.08 400.712C 132.688 400.397 133.389 400.24 134.184 400.24C 134.92 400.24 135.581 400.405 136.168 400.736C 136.755 401.061 137.216 401.515 137.552 402.096C 137.888 402.672 138.056 403.336 138.056 404.088C 138.056 404.637 137.981 405.099 137.832 405.472C 137.683 405.845 137.459 406.189 137.16 406.504C 136.867 406.819 136.501 407.168 136.064 407.552L136.064 407.552L132.568 410.648L132.392 410.168L138.056 410.168L138.056 411.984L130.128 411.984zM144.123 412.24C 143.307 412.24 142.587 412.067 141.963 411.72C 141.339 411.368 140.851 410.88 140.499 410.256C 140.153 409.632 139.979 408.912 139.979 408.096L139.979 408.096L139.979 404.384C 139.979 403.568 140.153 402.848 140.499 402.224C 140.851 401.6 141.339 401.115 141.963 400.768C 142.587 400.416 143.307 400.24 144.123 400.24C 144.939 400.24 145.657 400.416 146.275 400.768C 146.899 401.115 147.387 401.6 147.739 402.224C 148.091 402.848 148.267 403.568 148.267 404.384L148.267 404.384L148.267 408.096C 148.267 408.912 148.091 409.632 147.739 410.256C 147.387 410.88 146.899 411.368 146.275 411.72C 145.657 412.067 144.939 412.24 144.123 412.24zM144.123 410.408C 144.529 410.408 144.897 410.312 145.227 410.12C 145.558 409.923 145.819 409.661 146.011 409.336C 146.203 409.005 146.299 408.637 146.299 408.232L146.299 408.232L146.299 404.24C 146.299 403.829 146.203 403.461 146.011 403.136C 145.819 402.805 145.558 402.544 145.227 402.352C 144.897 402.155 144.529 402.056 144.123 402.056C 143.718 402.056 143.35 402.155 143.019 402.352C 142.689 402.544 142.427 402.805 142.235 403.136C 142.043 403.461 141.947 403.829 141.947 404.24L141.947 404.24L141.947 408.232C 141.947 408.637 142.043 409.005 142.235 409.336C 142.427 409.661 142.689 409.923 143.019 410.12C 143.35 410.312 143.718 410.408 144.123 410.408zM154.655 412.24C 153.839 412.24 153.119 412.067 152.495 411.72C 151.871 411.368 151.383 410.88 151.031 410.256C 150.684 409.632 150.511 408.912 150.511 408.096L150.511 408.096L150.511 404.384C 150.511 403.568 150.684 402.848 151.031 402.224C 151.383 401.6 151.871 401.115 152.495 400.768C 153.119 400.416 153.839 400.24 154.655 400.24C 155.471 400.24 156.188 400.416 156.807 400.768C 157.431 401.115 157.919 401.6 158.271 402.224C 158.623 402.848 158.799 403.568 158.799 404.384L158.799 404.384L158.799 408.096C 158.799 408.912 158.623 409.632 158.271 410.256C 157.919 410.88 157.431 411.368 156.807 411.72C 156.188 412.067 155.471 412.24 154.655 412.24zM154.655 410.408C 155.06 410.408 155.428 410.312 155.759 410.12C 156.089 409.923 156.351 409.661 156.543 409.336C 156.735 409.005 156.831 408.637 156.831 408.232L156.831 408.232L156.831 404.24C 156.831 403.829 156.735 403.461 156.543 403.136C 156.351 402.805 156.089 402.544 155.759 402.352C 155.428 402.155 155.06 402.056 154.655 402.056C 154.249 402.056 153.881 402.155 153.551 402.352C 153.22 402.544 152.959 402.805 152.767 403.136C 152.575 403.461 152.479 403.829 152.479 404.24L152.479 404.24L152.479 408.232C 152.479 408.637 152.575 409.005 152.767 409.336C 152.959 409.661 153.22 409.923 153.551 410.12C 153.881 410.312 154.249 410.408 154.655 410.408z" stroke="none" fill="#000000" fill-rule="nonzero" />
    <path d="M169.435 402.787L169.435 404.113L167.238 404.113L167.238 406.31L165.912 406.31L165.912 404.113L163.715 404.113L163.715 402.787L165.912 402.787L165.912 400.59L167.238 400.59L167.238 402.787L169.435 402.787zM172.708 398.9L174.008 398.9L174.008 408L172.513 408L172.513 400.499L170.68 401.019L170.316 399.745L172.708 398.9zM182.303 404.971L182.303 406.362L181.263 406.362L181.263 408L179.755 408L179.755 406.362L175.283 406.362L175.283 404.971L178.416 398.9L180.041 398.9L176.908 404.971L179.755 404.971L179.755 402.605L181.263 402.605L181.263 404.971L182.303 404.971zM186.168 402.293C 185.769 402.692 185.267 402.891 184.66 402.891C 184.053 402.891 183.546 402.692 183.139 402.293C 182.732 401.886 182.528 401.392 182.528 400.811C 182.528 400.23 182.732 399.741 183.139 399.342C 183.546 398.935 184.053 398.731 184.66 398.731C 185.267 398.731 185.769 398.93 186.168 399.329C 186.575 399.728 186.779 400.222 186.779 400.811C 186.779 401.392 186.575 401.886 186.168 402.293zM184.647 401.747C 184.924 401.747 185.15 401.656 185.323 401.474C 185.496 401.292 185.583 401.071 185.583 400.811C 185.583 400.542 185.496 400.317 185.323 400.135C 185.15 399.953 184.924 399.862 184.647 399.862C 184.378 399.862 184.157 399.953 183.984 400.135C 183.811 400.317 183.724 400.542 183.724 400.811C 183.724 401.071 183.811 401.292 183.984 401.474C 184.157 401.656 184.378 401.747 184.647 401.747zM183.295 406.661L189.288 399.992L189.99 400.395L183.997 407.077L183.295 406.661zM188.82 408.156C 188.213 408.156 187.706 407.957 187.299 407.558C 186.892 407.151 186.688 406.657 186.688 406.076C 186.688 405.495 186.892 405.006 187.299 404.607C 187.706 404.2 188.213 403.996 188.82 403.996C 189.418 403.996 189.921 404.2 190.328 404.607C 190.735 405.006 190.939 405.495 190.939 406.076C 190.939 406.657 190.735 407.151 190.328 407.558C 189.921 407.957 189.418 408.156 188.82 408.156zM188.807 407.012C 189.084 407.012 189.31 406.921 189.483 406.739C 189.656 406.557 189.743 406.336 189.743 406.076C 189.743 405.807 189.656 405.582 189.483 405.4C 189.31 405.218 189.084 405.127 188.807 405.127C 188.538 405.127 188.317 405.218 188.144 405.4C 187.971 405.582 187.884 405.807 187.884 406.076C 187.884 406.336 187.971 406.557 188.144 406.739C 188.317 406.921 188.538 407.012 188.807 407.012z" stroke="none" fill="#00E1F0" fill-rule="nonzero" />
    <path d="M105.443 425.4L106.243 425.4L106.243 431L105.323 431L105.323 426.384L104.195 426.704L103.971 425.92L105.443 425.4zM110.98 430.312C 110.596 430.84 110.057 431.104 109.364 431.104C 108.67 431.104 108.129 430.84 107.74 430.312C 107.356 429.784 107.164 429.08 107.164 428.2C 107.164 427.32 107.356 426.616 107.74 426.088C 108.129 425.56 108.67 425.296 109.364 425.296C 110.057 425.296 110.596 425.56 110.98 426.088C 111.369 426.616 111.564 427.32 111.564 428.2C 111.564 429.08 111.369 429.784 110.98 430.312zM109.364 430.208C 109.78 430.208 110.097 430.035 110.316 429.688C 110.534 429.341 110.644 428.845 110.644 428.2C 110.644 427.555 110.534 427.059 110.316 426.712C 110.097 426.365 109.78 426.192 109.364 426.192C 108.953 426.192 108.636 426.365 108.412 426.712C 108.193 427.059 108.084 427.555 108.084 428.2C 108.084 428.845 108.193 429.341 108.412 429.688C 108.636 430.035 108.953 430.208 109.364 430.208zM115.923 431L114.891 431L113.251 429.152L113.251 431L112.387 431L112.387 425.4L113.251 425.4L113.251 428.768L114.803 427L115.859 427L114.099 428.96L115.923 431z" stroke="none" fill="#718EBF" fill-rule="nonzero" />
    <path d="M111.746 448.136L111.746 448.992L111.106 448.992L111.106 450L110.178 450L110.178 448.992L107.426 448.992L107.426 448.136L109.354 444.4L110.354 444.4L108.426 448.136L110.178 448.136L110.178 446.68L111.106 446.68L111.106 448.136L111.746 448.136zM115.923 450L114.891 450L113.251 448.152L113.251 450L112.387 450L112.387 444.4L113.251 444.4L113.251 447.768L114.803 446L115.859 446L114.099 447.96L115.923 450z" stroke="none" fill="#718EBF" fill-rule="nonzero" />
    <path d="M107.896 469L107.896 468.28L109.848 466.288C 110.323 465.813 110.56 465.403 110.56 465.056C 110.56 464.784 110.478 464.573 110.312 464.424C 110.152 464.269 109.947 464.192 109.696 464.192C 109.227 464.192 108.88 464.424 108.656 464.888L108.656 464.888L107.88 464.432C 108.056 464.059 108.304 463.776 108.624 463.584C 108.944 463.392 109.299 463.296 109.688 463.296C 110.179 463.296 110.6 463.451 110.952 463.76C 111.304 464.069 111.48 464.491 111.48 465.024C 111.48 465.595 111.163 466.203 110.528 466.848L110.528 466.848L109.264 468.112L111.584 468.112L111.584 469L107.896 469zM115.923 469L114.891 469L113.251 467.152L113.251 469L112.387 469L112.387 463.4L113.251 463.4L113.251 466.768L114.803 465L115.859 465L114.099 466.96L115.923 469z" stroke="none" fill="#718EBF" fill-rule="nonzero" />
    <path d="M115.097 488.312C 114.713 488.84 114.174 489.104 113.481 489.104C 112.788 489.104 112.246 488.84 111.857 488.312C 111.473 487.784 111.281 487.08 111.281 486.2C 111.281 485.32 111.473 484.616 111.857 484.088C 112.246 483.56 112.788 483.296 113.481 483.296C 114.174 483.296 114.713 483.56 115.097 484.088C 115.486 484.616 115.681 485.32 115.681 486.2C 115.681 487.08 115.486 487.784 115.097 488.312zM113.481 488.208C 113.897 488.208 114.214 488.035 114.433 487.688C 114.652 487.341 114.761 486.845 114.761 486.2C 114.761 485.555 114.652 485.059 114.433 484.712C 114.214 484.365 113.897 484.192 113.481 484.192C 113.07 484.192 112.753 484.365 112.529 484.712C 112.31 485.059 112.201 485.555 112.201 486.2C 112.201 486.845 112.31 487.341 112.529 487.688C 112.753 488.035 113.07 488.208 113.481 488.208z" stroke="none" fill="#718EBF" fill-rule="nonzero" />
    <path d="M134.6 501.104C 134.061 501.104 133.602 500.981 133.224 500.736C 132.85 500.491 132.589 500.155 132.44 499.728L132.44 499.728L133.232 499.264C 133.456 499.893 133.92 500.208 134.624 500.208C 134.97 500.208 135.229 500.141 135.4 500.008C 135.576 499.869 135.664 499.691 135.664 499.472C 135.664 499.243 135.57 499.069 135.384 498.952C 135.197 498.829 134.866 498.696 134.392 498.552C 134.125 498.472 133.909 498.397 133.744 498.328C 133.578 498.259 133.402 498.163 133.216 498.04C 133.034 497.912 132.898 497.755 132.808 497.568C 132.717 497.381 132.672 497.163 132.672 496.912C 132.672 496.416 132.848 496.024 133.2 495.736C 133.552 495.443 133.976 495.296 134.472 495.296C 134.92 495.296 135.312 495.405 135.648 495.624C 135.984 495.843 136.242 496.144 136.424 496.528L136.424 496.528L135.648 496.976C 135.413 496.453 135.021 496.192 134.472 496.192C 134.205 496.192 133.992 496.256 133.832 496.384C 133.672 496.507 133.592 496.675 133.592 496.888C 133.592 497.096 133.672 497.261 133.832 497.384C 133.997 497.501 134.293 497.627 134.72 497.76C 134.933 497.829 135.088 497.883 135.184 497.92C 135.285 497.952 135.424 498.005 135.6 498.08C 135.781 498.155 135.917 498.229 136.008 498.304C 136.098 498.379 136.194 498.472 136.296 498.584C 136.402 498.696 136.477 498.824 136.52 498.968C 136.562 499.112 136.584 499.275 136.584 499.456C 136.584 499.963 136.4 500.365 136.032 500.664C 135.669 500.957 135.192 501.104 134.6 501.104z" stroke="none" fill="#718EBF" fill-rule="nonzero" />
    <path d="M124 482C 124 480.343 125.343 479 127 479L127 479L141 479C 142.657 479 144 480.343 144 482L144 482L144 491L124 491L124 482z" stroke="none" fill="#FFFFFF" fill-rule="nonzero" />
    <path d="M161.182 495.4L161.182 501L160.262 501L160.262 497.008L158.558 499.824L158.446 499.824L156.742 497L156.742 501L155.822 501L155.822 495.4L156.814 495.4L158.502 498.2L160.198 495.4L161.182 495.4z" stroke="none" fill="#718EBF" fill-rule="nonzero" />
    <path d="M148 476C 148 474.343 149.343 473 151 473L151 473L165 473C 166.657 473 168 474.343 168 476L168 476L168 491L148 491L148 476z" stroke="none" fill="#FFFFFF" fill-rule="nonzero" />
    <path d="M184.54 495.4L184.54 496.28L182.964 496.28L182.964 501L182.044 501L182.044 496.28L180.46 496.28L180.46 495.4L184.54 495.4z" stroke="none" fill="#718EBF" fill-rule="nonzero" />
    <path d="M172 452C 172 450.343 173.343 449 175 449L175 449L189 449C 190.657 449 192 450.343 192 452L192 452L192 491L172 491L172 452z" stroke="none" fill="#FFFFFF" fill-rule="nonzero" />
    <path d="M203.748 501L202.164 495.4L203.132 495.4L204.308 499.776L205.58 495.4L206.428 495.4L207.692 499.776L208.868 495.4L209.836 495.4L208.252 501L207.188 501L206.004 496.912L204.812 501L203.748 501z" stroke="none" fill="#718EBF" fill-rule="nonzero" />
    <path d="M196 463C 196 461.343 197.343 460 199 460L199 460L213 460C 214.657 460 216 461.343 216 463L216 463L216 491L196 491L196 463z" stroke="none" fill="#3734A9" fill-rule="nonzero" />
    <path d="M232.54 495.4L232.54 496.28L230.964 496.28L230.964 501L230.044 501L230.044 496.28L228.46 496.28L228.46 495.4L232.54 495.4z" stroke="none" fill="#718EBF" fill-rule="nonzero" />
    <path d="M220 435C 220 433.343 221.343 432 223 432L223 432L237 432C 238.657 432 240 433.343 240 435L240 435L240 491L220 491L220 435z" stroke="none" fill="#3734A9" fill-rule="nonzero" />
    <path d="M257.27 496.28L254.91 496.28L254.91 497.848L257.19 497.848L257.19 498.728L254.91 498.728L254.91 501L253.99 501L253.99 495.4L257.27 495.4L257.27 496.28z" stroke="none" fill="#718EBF" fill-rule="nonzero" />
    <path d="M244 482C 244 480.343 245.343 479 247 479L247 479L261 479C 262.657 479 264 480.343 264 482L264 482L264 491L244 491L244 482z" stroke="none" fill="#FFFFFF" fill-rule="nonzero" />
    <path d="M278.6 501.104C 278.061 501.104 277.602 500.981 277.224 500.736C 276.85 500.491 276.589 500.155 276.44 499.728L276.44 499.728L277.232 499.264C 277.456 499.893 277.92 500.208 278.624 500.208C 278.97 500.208 279.229 500.141 279.4 500.008C 279.576 499.869 279.664 499.691 279.664 499.472C 279.664 499.243 279.57 499.069 279.384 498.952C 279.197 498.829 278.866 498.696 278.392 498.552C 278.125 498.472 277.909 498.397 277.744 498.328C 277.578 498.259 277.402 498.163 277.216 498.04C 277.034 497.912 276.898 497.755 276.808 497.568C 276.717 497.381 276.672 497.163 276.672 496.912C 276.672 496.416 276.848 496.024 277.2 495.736C 277.552 495.443 277.976 495.296 278.472 495.296C 278.92 495.296 279.312 495.405 279.648 495.624C 279.984 495.843 280.242 496.144 280.424 496.528L280.424 496.528L279.648 496.976C 279.413 496.453 279.021 496.192 278.472 496.192C 278.205 496.192 277.992 496.256 277.832 496.384C 277.672 496.507 277.592 496.675 277.592 496.888C 277.592 497.096 277.672 497.261 277.832 497.384C 277.997 497.501 278.293 497.627 278.72 497.76C 278.933 497.829 279.088 497.883 279.184 497.92C 279.285 497.952 279.424 498.005 279.6 498.08C 279.781 498.155 279.917 498.229 280.008 498.304C 280.098 498.379 280.194 498.472 280.296 498.584C 280.402 498.696 280.477 498.824 280.52 498.968C 280.562 499.112 280.584 499.275 280.584 499.456C 280.584 499.963 280.4 500.365 280.032 500.664C 279.669 500.957 279.192 501.104 278.6 501.104z" stroke="none" fill="#718EBF" fill-rule="nonzero" />
    <path d="M268 463C 268 461.343 269.343 460 271 460L271 460L285 460C 286.657 460 288 461.343 288 463L288 463L288 491L268 491L268 463z" stroke="none" fill="#3734A9" fill-rule="nonzero" />
    <path d="M303.6 501.104C 303.061 501.104 302.602 500.981 302.224 500.736C 301.85 500.491 301.589 500.155 301.44 499.728L301.44 499.728L302.232 499.264C 302.456 499.893 302.92 500.208 303.624 500.208C 303.97 500.208 304.229 500.141 304.4 500.008C 304.576 499.869 304.664 499.691 304.664 499.472C 304.664 499.243 304.57 499.069 304.384 498.952C 304.197 498.829 303.866 498.696 303.392 498.552C 303.125 498.472 302.909 498.397 302.744 498.328C 302.578 498.259 302.402 498.163 302.216 498.04C 302.034 497.912 301.898 497.755 301.808 497.568C 301.717 497.381 301.672 497.163 301.672 496.912C 301.672 496.416 301.848 496.024 302.2 495.736C 302.552 495.443 302.976 495.296 303.472 495.296C 303.92 495.296 304.312 495.405 304.648 495.624C 304.984 495.843 305.242 496.144 305.424 496.528L305.424 496.528L304.648 496.976C 304.413 496.453 304.021 496.192 303.472 496.192C 303.205 496.192 302.992 496.256 302.832 496.384C 302.672 496.507 302.592 496.675 302.592 496.888C 302.592 497.096 302.672 497.261 302.832 497.384C 302.997 497.501 303.293 497.627 303.72 497.76C 303.933 497.829 304.088 497.883 304.184 497.92C 304.285 497.952 304.424 498.005 304.6 498.08C 304.781 498.155 304.917 498.229 305.008 498.304C 305.098 498.379 305.194 498.472 305.296 498.584C 305.402 498.696 305.477 498.824 305.52 498.968C 305.562 499.112 305.584 499.275 305.584 499.456C 305.584 499.963 305.4 500.365 305.032 500.664C 304.669 500.957 304.192 501.104 303.6 501.104z" stroke="none" fill="#718EBF" fill-rule="nonzero" />
    <path d="M292 448C 292 446.343 293.343 445 295 445L295 445L309 445C 310.657 445 312 446.343 312 448L312 448L312 491L292 491L292 448z" stroke="none" fill="#3734A9" fill-rule="nonzero" />
	<g>
        <path d="M89 164C 89 158.47716 93.47715 154 99 154L99 154L365 154C 370.52286 154 375 158.47716 375 164L375 164L375 229C 375 234.52284 370.52286 239 365 239L365 239L99 239C 93.47715 239 89 234.52284 89 229L89 229L89 164z" stroke="none" fill="#FFFFFF" fill-rule="nonzero" fill-opacity="0.8" />
	</g>
    <path d="M162 197C 162 204.45586 159.36397 210.81982 154.09189 216.09189C 148.81981 221.36398 142.45584 224.00002 135 224C 127.54416 224.00002 121.1802 221.36398 115.90812 216.09189C 110.63604 210.81982 108 204.45586 108 197C 108 189.54416 110.63604 183.1802 115.90812 177.90811C 121.1802 172.63605 127.54416 170 135 170C 142.45584 170 148.81981 172.63605 154.09189 177.90811C 159.36397 183.1802 162 189.54416 162 197C 162 197.3142 161.99452 197.6283 161.98355 197.94229" stroke="none" fill="none" />
    <path d="M176.98 220L176.98 209.92L181.054 209.92C 181.152 209.92 181.273 209.925 181.418 209.934C 181.563 209.939 181.7 209.953 181.831 209.976C 182.391 210.065 182.858 210.256 183.231 210.55C 183.609 210.844 183.891 211.215 184.078 211.663C 184.265 212.111 184.358 212.606 184.358 213.147C 184.358 213.95 184.153 214.643 183.742 215.226C 183.331 215.805 182.715 216.166 181.894 216.311L181.894 216.311L181.299 216.381L178.443 216.381L178.443 220L176.98 220zM182.874 220L180.886 215.898L182.363 215.52L184.547 220L182.874 220zM178.443 214.995L180.998 214.995C 181.091 214.995 181.194 214.99 181.306 214.981C 181.423 214.972 181.532 214.955 181.635 214.932C 181.934 214.862 182.174 214.734 182.356 214.547C 182.538 214.356 182.669 214.136 182.748 213.889C 182.827 213.642 182.867 213.394 182.867 213.147C 182.867 212.9 182.827 212.655 182.748 212.412C 182.669 212.165 182.538 211.948 182.356 211.761C 182.174 211.57 181.934 211.439 181.635 211.369C 181.532 211.341 181.423 211.322 181.306 211.313C 181.194 211.304 181.091 211.299 180.998 211.299L180.998 211.299L178.443 211.299L178.443 214.995zM189.158 220.21C 188.407 220.21 187.747 220.047 187.177 219.72C 186.613 219.389 186.172 218.929 185.854 218.341C 185.542 217.748 185.385 217.062 185.385 216.283C 185.385 215.457 185.539 214.741 185.847 214.134C 186.16 213.527 186.594 213.058 187.149 212.727C 187.705 212.396 188.351 212.23 189.088 212.23C 189.858 212.23 190.514 212.41 191.055 212.769C 191.597 213.124 192 213.63 192.266 214.288C 192.537 214.946 192.644 215.728 192.588 216.633L192.588 216.633L191.125 216.633L191.125 216.101C 191.116 215.224 190.948 214.575 190.621 214.155C 190.299 213.735 189.807 213.525 189.144 213.525C 188.412 213.525 187.861 213.756 187.492 214.218C 187.124 214.68 186.939 215.347 186.939 216.22C 186.939 217.051 187.124 217.695 187.492 218.152C 187.861 218.605 188.393 218.831 189.088 218.831C 189.546 218.831 189.94 218.728 190.271 218.523C 190.607 218.313 190.869 218.014 191.055 217.627L191.055 217.627L192.49 218.082C 192.196 218.759 191.751 219.284 191.153 219.657C 190.556 220.026 189.891 220.21 189.158 220.21zM186.463 216.633L186.463 215.492L191.86 215.492L191.86 216.633L186.463 216.633zM197.113 220.21C 196.338 220.21 195.68 220.037 195.139 219.692C 194.598 219.347 194.182 218.873 193.893 218.271C 193.608 217.669 193.464 216.985 193.459 216.22C 193.464 215.441 193.613 214.752 193.907 214.155C 194.201 213.553 194.621 213.082 195.167 212.741C 195.713 212.4 196.369 212.23 197.134 212.23C 197.96 212.23 198.665 212.435 199.248 212.846C 199.836 213.257 200.223 213.819 200.41 214.533L200.41 214.533L198.954 214.953C 198.809 214.528 198.571 214.199 198.24 213.966C 197.913 213.728 197.538 213.609 197.113 213.609C 196.632 213.609 196.238 213.723 195.93 213.952C 195.622 214.176 195.393 214.484 195.244 214.876C 195.095 215.268 195.018 215.716 195.013 216.22C 195.018 216.999 195.195 217.629 195.545 218.11C 195.9 218.591 196.422 218.831 197.113 218.831C 197.584 218.831 197.965 218.724 198.254 218.509C 198.548 218.29 198.772 217.977 198.926 217.571L198.926 217.571L200.41 217.921C 200.163 218.658 199.754 219.225 199.185 219.622C 198.616 220.014 197.925 220.21 197.113 220.21zM204.704 220.21C 203.953 220.21 203.292 220.047 202.723 219.72C 202.158 219.389 201.717 218.929 201.4 218.341C 201.087 217.748 200.931 217.062 200.931 216.283C 200.931 215.457 201.085 214.741 201.393 214.134C 201.706 213.527 202.14 213.058 202.695 212.727C 203.25 212.396 203.897 212.23 204.634 212.23C 205.404 212.23 206.06 212.41 206.601 212.769C 207.142 213.124 207.546 213.63 207.812 214.288C 208.083 214.946 208.19 215.728 208.134 216.633L208.134 216.633L206.671 216.633L206.671 216.101C 206.662 215.224 206.494 214.575 206.167 214.155C 205.845 213.735 205.353 213.525 204.69 213.525C 203.957 213.525 203.407 213.756 203.038 214.218C 202.669 214.68 202.485 215.347 202.485 216.22C 202.485 217.051 202.669 217.695 203.038 218.152C 203.407 218.605 203.939 218.831 204.634 218.831C 205.091 218.831 205.486 218.728 205.817 218.523C 206.153 218.313 206.414 218.014 206.601 217.627L206.601 217.627L208.036 218.082C 207.742 218.759 207.296 219.284 206.699 219.657C 206.102 220.026 205.437 220.21 204.704 220.21zM202.009 216.633L202.009 215.492L207.406 215.492L207.406 216.633L202.009 216.633zM209.564 211.201L209.564 209.78L211.027 209.78L211.027 211.201L209.564 211.201zM209.564 220L209.564 212.44L211.027 212.44L211.027 220L209.564 220zM214.894 220L212.15 212.44L213.627 212.44L215.636 218.166L217.645 212.44L219.122 212.44L216.378 220L214.894 220zM223.182 220.21C 222.431 220.21 221.771 220.047 221.201 219.72C 220.637 219.389 220.196 218.929 219.878 218.341C 219.566 217.748 219.409 217.062 219.409 216.283C 219.409 215.457 219.563 214.741 219.871 214.134C 220.184 213.527 220.618 213.058 221.173 212.727C 221.729 212.396 222.375 212.23 223.112 212.23C 223.882 212.23 224.538 212.41 225.079 212.769C 225.621 213.124 226.024 213.63 226.29 214.288C 226.561 214.946 226.668 215.728 226.612 216.633L226.612 216.633L225.149 216.633L225.149 216.101C 225.14 215.224 224.972 214.575 224.645 214.155C 224.323 213.735 223.831 213.525 223.168 213.525C 222.436 213.525 221.885 213.756 221.516 214.218C 221.148 214.68 220.963 215.347 220.963 216.22C 220.963 217.051 221.148 217.695 221.516 218.152C 221.885 218.605 222.417 218.831 223.112 218.831C 223.57 218.831 223.964 218.728 224.295 218.523C 224.631 218.313 224.893 218.014 225.079 217.627L225.079 217.627L226.514 218.082C 226.22 218.759 225.775 219.284 225.177 219.657C 224.58 220.026 223.915 220.21 223.182 220.21zM220.487 216.633L220.487 215.492L225.884 215.492L225.884 216.633L220.487 216.633zM230.906 220.21C 230.201 220.21 229.592 220.035 229.079 219.685C 228.57 219.335 228.176 218.859 227.896 218.257C 227.62 217.65 227.483 216.969 227.483 216.213C 227.483 215.452 227.623 214.773 227.903 214.176C 228.183 213.574 228.579 213.1 229.093 212.755C 229.611 212.405 230.224 212.23 230.934 212.23C 231.648 212.23 232.247 212.405 232.733 212.755C 233.223 213.1 233.591 213.574 233.839 214.176C 234.091 214.778 234.217 215.457 234.217 216.213C 234.217 216.969 234.091 217.648 233.839 218.25C 233.587 218.852 233.216 219.33 232.726 219.685C 232.236 220.035 231.629 220.21 230.906 220.21zM231.109 218.887C 231.589 218.887 231.981 218.773 232.285 218.544C 232.588 218.315 232.81 218 232.95 217.599C 233.09 217.198 233.16 216.736 233.16 216.213C 233.16 215.69 233.087 215.228 232.943 214.827C 232.803 214.426 232.583 214.113 232.285 213.889C 231.991 213.665 231.615 213.553 231.158 213.553C 230.672 213.553 230.273 213.672 229.961 213.91C 229.648 214.148 229.415 214.468 229.261 214.869C 229.111 215.27 229.037 215.718 229.037 216.213C 229.037 216.712 229.111 217.165 229.261 217.571C 229.415 217.972 229.643 218.292 229.947 218.53C 230.255 218.768 230.642 218.887 231.109 218.887zM233.16 220L233.16 214.561L232.992 214.561L232.992 209.92L234.462 209.92L234.462 220L233.16 220zM239.356 220L239.356 212.174C 239.356 211.983 239.363 211.78 239.377 211.565C 239.391 211.346 239.431 211.131 239.496 210.921C 239.566 210.706 239.68 210.51 239.839 210.333C 240.03 210.123 240.24 209.974 240.469 209.885C 240.698 209.796 240.924 209.745 241.148 209.731C 241.377 209.717 241.587 209.71 241.778 209.71L241.778 209.71L242.73 209.71L242.73 210.914L241.848 210.914C 241.503 210.914 241.244 211 241.071 211.173C 240.903 211.341 240.819 211.581 240.819 211.894L240.819 211.894L240.819 220L239.356 220zM238.103 213.616L238.103 212.44L242.73 212.44L242.73 213.616L238.103 213.616zM243.565 220L243.565 212.44L244.867 212.44L244.867 214.274L244.685 214.036C 244.778 213.793 244.899 213.572 245.049 213.371C 245.198 213.166 245.371 212.998 245.567 212.867C 245.758 212.727 245.97 212.62 246.204 212.545C 246.442 212.466 246.684 212.419 246.932 212.405C 247.179 212.386 247.417 212.398 247.646 212.44L247.646 212.44L247.646 213.812C 247.398 213.747 247.123 213.728 246.82 213.756C 246.521 213.784 246.246 213.88 245.994 214.043C 245.756 214.197 245.567 214.384 245.427 214.603C 245.291 214.822 245.193 215.067 245.133 215.338C 245.072 215.604 245.042 215.886 245.042 216.185L245.042 216.185L245.042 220L243.565 220zM251.845 220.21C 251.089 220.21 250.433 220.04 249.878 219.699C 249.323 219.358 248.893 218.889 248.59 218.292C 248.291 217.69 248.142 216.997 248.142 216.213C 248.142 215.424 248.296 214.731 248.604 214.134C 248.912 213.532 249.344 213.065 249.899 212.734C 250.454 212.398 251.103 212.23 251.845 212.23C 252.601 212.23 253.257 212.4 253.812 212.741C 254.367 213.082 254.797 213.551 255.1 214.148C 255.403 214.745 255.555 215.434 255.555 216.213C 255.555 217.002 255.401 217.697 255.093 218.299C 254.79 218.896 254.36 219.365 253.805 219.706C 253.25 220.042 252.596 220.21 251.845 220.21zM251.845 218.831C 252.568 218.831 253.107 218.588 253.462 218.103C 253.821 217.613 254.001 216.983 254.001 216.213C 254.001 215.424 253.819 214.794 253.455 214.323C 253.096 213.847 252.559 213.609 251.845 213.609C 251.355 213.609 250.951 213.721 250.634 213.945C 250.317 214.164 250.081 214.47 249.927 214.862C 249.773 215.249 249.696 215.7 249.696 216.213C 249.696 217.006 249.878 217.641 250.242 218.117C 250.606 218.593 251.14 218.831 251.845 218.831zM265.871 220L265.878 215.289C 265.878 214.743 265.738 214.318 265.458 214.015C 265.178 213.707 264.81 213.553 264.352 213.553C 264.072 213.553 263.816 213.618 263.582 213.749C 263.354 213.875 263.167 214.066 263.022 214.323C 262.882 214.575 262.812 214.892 262.812 215.275L262.812 215.275L262.105 214.918C 262.096 214.386 262.208 213.919 262.441 213.518C 262.679 213.117 263.001 212.806 263.407 212.587C 263.813 212.363 264.268 212.251 264.772 212.251C 265.589 212.251 266.221 212.496 266.669 212.986C 267.117 213.476 267.341 214.127 267.341 214.939L267.341 214.939L267.334 220L265.871 220zM256.806 220L256.806 212.44L258.108 212.44L258.108 214.624L258.276 214.624L258.276 220L256.806 220zM261.342 220L261.349 215.317C 261.349 214.766 261.209 214.335 260.929 214.022C 260.654 213.709 260.283 213.553 259.816 213.553C 259.354 213.553 258.981 213.712 258.696 214.029C 258.416 214.346 258.276 214.762 258.276 215.275L258.276 215.275L257.576 214.827C 257.576 214.332 257.695 213.891 257.933 213.504C 258.171 213.117 258.493 212.811 258.899 212.587C 259.305 212.363 259.765 212.251 260.278 212.251C 260.815 212.251 261.272 212.365 261.65 212.594C 262.028 212.818 262.315 213.133 262.511 213.539C 262.712 213.945 262.812 214.416 262.812 214.953L262.812 214.953L262.805 220L261.342 220zM270.702 220L273.978 209.92L276.085 209.92L279.361 220L277.842 220L274.825 210.802L275.203 210.802L272.221 220L270.702 220zM272.403 217.725L272.403 216.353L277.667 216.353L277.667 217.725L272.403 217.725zM280.337 220L280.337 209.92L284.411 209.92C 284.509 209.92 284.63 209.925 284.775 209.934C 284.919 209.939 285.057 209.953 285.188 209.976C 285.748 210.065 286.214 210.256 286.588 210.55C 286.966 210.844 287.248 211.215 287.435 211.663C 287.621 212.111 287.715 212.606 287.715 213.147C 287.715 213.95 287.509 214.643 287.099 215.226C 286.688 215.805 286.072 216.166 285.251 216.311L285.251 216.311L284.656 216.381L281.8 216.381L281.8 220L280.337 220zM286.231 220L284.243 215.898L285.72 215.52L287.904 220L286.231 220zM281.8 214.995L284.355 214.995C 284.448 214.995 284.551 214.99 284.663 214.981C 284.779 214.972 284.889 214.955 284.992 214.932C 285.29 214.862 285.531 214.734 285.713 214.547C 285.895 214.356 286.025 214.136 286.105 213.889C 286.184 213.642 286.224 213.394 286.224 213.147C 286.224 212.9 286.184 212.655 286.105 212.412C 286.025 212.165 285.895 211.948 285.713 211.761C 285.531 211.57 285.29 211.439 284.992 211.369C 284.889 211.341 284.779 211.322 284.663 211.313C 284.551 211.304 284.448 211.299 284.355 211.299L284.355 211.299L281.8 211.299L281.8 214.995zM295.339 220.21C 294.616 220.21 293.962 220.086 293.379 219.839C 292.8 219.587 292.322 219.23 291.944 218.768C 291.571 218.301 291.328 217.748 291.216 217.109L291.216 217.109L292.742 216.878C 292.896 217.494 293.218 217.975 293.708 218.32C 294.198 218.661 294.77 218.831 295.423 218.831C 295.829 218.831 296.202 218.768 296.543 218.642C 296.884 218.511 297.157 218.327 297.362 218.089C 297.572 217.846 297.677 217.557 297.677 217.221C 297.677 217.039 297.644 216.878 297.579 216.738C 297.518 216.598 297.432 216.477 297.32 216.374C 297.213 216.267 297.08 216.176 296.921 216.101C 296.767 216.022 296.597 215.954 296.41 215.898L296.41 215.898L293.827 215.135C 293.575 215.06 293.318 214.965 293.057 214.848C 292.796 214.727 292.555 214.57 292.336 214.379C 292.121 214.183 291.946 213.943 291.811 213.658C 291.676 213.369 291.608 213.019 291.608 212.608C 291.608 211.987 291.767 211.462 292.084 211.033C 292.406 210.599 292.84 210.272 293.386 210.053C 293.932 209.829 294.543 209.717 295.22 209.717C 295.901 209.726 296.51 209.848 297.047 210.081C 297.588 210.314 298.036 210.65 298.391 211.089C 298.75 211.523 298.998 212.05 299.133 212.671L299.133 212.671L297.565 212.937C 297.495 212.559 297.346 212.235 297.117 211.964C 296.888 211.689 296.608 211.479 296.277 211.334C 295.946 211.185 295.586 211.108 295.199 211.103C 294.826 211.094 294.483 211.15 294.17 211.271C 293.862 211.392 293.615 211.563 293.428 211.782C 293.246 212.001 293.155 212.253 293.155 212.538C 293.155 212.818 293.237 213.044 293.4 213.217C 293.563 213.39 293.764 213.527 294.002 213.63C 294.245 213.728 294.485 213.81 294.723 213.875L294.723 213.875L296.585 214.4C 296.818 214.465 297.082 214.554 297.376 214.666C 297.675 214.773 297.962 214.925 298.237 215.121C 298.517 215.317 298.748 215.578 298.93 215.905C 299.112 216.227 299.203 216.633 299.203 217.123C 299.203 217.632 299.1 218.08 298.895 218.467C 298.69 218.85 298.407 219.172 298.048 219.433C 297.693 219.69 297.283 219.883 296.816 220.014C 296.349 220.145 295.857 220.21 295.339 220.21zM305.721 220L305.721 216.283C 305.721 215.989 305.695 215.688 305.644 215.38C 305.597 215.067 305.504 214.778 305.364 214.512C 305.228 214.246 305.035 214.031 304.783 213.868C 304.535 213.705 304.211 213.623 303.81 213.623C 303.548 213.623 303.301 213.667 303.068 213.756C 302.834 213.84 302.629 213.978 302.452 214.169C 302.279 214.36 302.141 214.612 302.039 214.925C 301.941 215.238 301.892 215.618 301.892 216.066L301.892 216.066L300.982 215.723C 300.982 215.037 301.11 214.433 301.367 213.91C 301.623 213.383 301.992 212.972 302.473 212.678C 302.953 212.384 303.534 212.237 304.216 212.237C 304.738 212.237 305.177 212.321 305.532 212.489C 305.886 212.657 306.173 212.879 306.393 213.154C 306.617 213.425 306.787 213.721 306.904 214.043C 307.02 214.365 307.1 214.68 307.142 214.988C 307.184 215.296 307.205 215.567 307.205 215.8L307.205 215.8L307.205 220L305.721 220zM300.408 220L300.408 209.92L301.717 209.92L301.717 215.359L301.892 215.359L301.892 220L300.408 220zM310.883 220.21C 310.323 220.21 309.854 220.107 309.476 219.902C 309.098 219.692 308.811 219.417 308.615 219.076C 308.424 218.731 308.328 218.353 308.328 217.942C 308.328 217.559 308.396 217.223 308.531 216.934C 308.666 216.645 308.867 216.4 309.133 216.199C 309.399 215.994 309.726 215.828 310.113 215.702C 310.449 215.604 310.829 215.518 311.254 215.443C 311.679 215.368 312.124 215.298 312.591 215.233C 313.062 215.168 313.529 215.102 313.991 215.037L313.991 215.037L313.459 215.331C 313.468 214.738 313.342 214.3 313.081 214.015C 312.824 213.726 312.381 213.581 311.751 213.581C 311.354 213.581 310.99 213.674 310.659 213.861C 310.328 214.043 310.097 214.346 309.966 214.771L309.966 214.771L308.601 214.351C 308.788 213.702 309.142 213.187 309.665 212.804C 310.192 212.421 310.892 212.23 311.765 212.23C 312.442 212.23 313.03 212.347 313.529 212.58C 314.033 212.809 314.402 213.173 314.635 213.672C 314.756 213.919 314.831 214.181 314.859 214.456C 314.887 214.731 314.901 215.028 314.901 215.345L314.901 215.345L314.901 220L313.606 220L313.606 218.271L313.858 218.495C 313.545 219.074 313.146 219.505 312.661 219.79C 312.18 220.07 311.588 220.21 310.883 220.21zM311.142 219.013C 311.557 219.013 311.914 218.941 312.213 218.796C 312.512 218.647 312.752 218.458 312.934 218.229C 313.116 218 313.235 217.762 313.291 217.515C 313.37 217.291 313.415 217.039 313.424 216.759C 313.438 216.479 313.445 216.255 313.445 216.087L313.445 216.087L313.921 216.262C 313.459 216.332 313.039 216.395 312.661 216.451C 312.283 216.507 311.94 216.563 311.632 216.619C 311.329 216.67 311.058 216.733 310.82 216.808C 310.619 216.878 310.44 216.962 310.281 217.06C 310.127 217.158 310.003 217.277 309.91 217.417C 309.821 217.557 309.777 217.727 309.777 217.928C 309.777 218.124 309.826 218.306 309.924 218.474C 310.022 218.637 310.171 218.768 310.372 218.866C 310.573 218.964 310.829 219.013 311.142 219.013zM316.432 220L316.439 209.92L317.923 209.92L317.923 216.08L320.891 212.44L322.753 212.44L319.617 216.22L323.075 220L321.087 220L317.923 216.36L317.923 220L316.432 220zM323.64 211.201L323.64 209.78L325.103 209.78L325.103 211.201L323.64 211.201zM323.64 220L323.64 212.44L325.103 212.44L325.103 220L323.64 220zM326.925 220L326.925 212.44L328.227 212.44L328.227 214.274L328.045 214.036C 328.139 213.793 328.26 213.572 328.409 213.371C 328.559 213.166 328.731 212.998 328.927 212.867C 329.119 212.727 329.331 212.62 329.564 212.545C 329.802 212.466 330.045 212.419 330.292 212.405C 330.54 212.386 330.778 212.398 331.006 212.44L331.006 212.44L331.006 213.812C 330.759 213.747 330.484 213.728 330.18 213.756C 329.882 213.784 329.606 213.88 329.354 214.043C 329.116 214.197 328.927 214.384 328.787 214.603C 328.652 214.822 328.554 215.067 328.493 215.338C 328.433 215.604 328.402 215.886 328.402 216.185L328.402 216.185L328.402 220L326.925 220z" stroke="none" fill="#757095" fill-rule="nonzero" />
    <path d="M176 183C 176 175.8203 181.8203 170 189 170L189 170L249 170C 256.1797 170 262 175.8203 262 183C 262 190.1797 256.1797 196 249 196L249 196L189 196C 181.8203 196 176 190.1797 176 183z" stroke="none" fill="#3734A9" fill-rule="nonzero" fill-opacity="0.09803922" />
    <path d="M192.07 182.835L194.545 182.835L194.545 184.65L192.07 184.65L192.07 187.125L190.255 187.125L190.255 184.65L187.795 184.65L187.795 182.835L190.255 182.835L190.255 180.375L192.07 180.375L192.07 182.835zM206.33 186.06C 206.33 186.92 206.055 187.63 205.505 188.19C 204.955 188.74 204.22 189.07 203.3 189.18L203.3 189.18L203.3 190.5L202.295 190.5L202.295 189.195C 201.455 189.135 200.735 188.9 200.135 188.49C 199.535 188.08 199.105 187.525 198.845 186.825L198.845 186.825L200.63 185.79C 200.95 186.6 201.505 187.055 202.295 187.155L202.295 187.155L202.295 184.56L202.28 184.56L202.25 184.545C 201.64 184.325 201.095 184.065 200.615 183.765C 199.805 183.255 199.37 182.445 199.31 181.335C 199.31 180.445 199.595 179.74 200.165 179.22C 200.765 178.68 201.475 178.375 202.295 178.305L202.295 178.305L202.295 177L203.3 177L203.3 178.335C 204.66 178.505 205.62 179.21 206.18 180.45L206.18 180.45L204.44 181.47C 204.2 180.87 203.82 180.505 203.3 180.375L203.3 180.375L203.3 182.88C 204.27 183.27 204.895 183.565 205.175 183.765C 205.945 184.325 206.33 185.09 206.33 186.06zM201.365 181.35C 201.365 181.57 201.435 181.765 201.575 181.935C 201.715 182.095 201.955 182.26 202.295 182.43L202.295 182.43L202.295 180.33C 201.675 180.45 201.365 180.79 201.365 181.35zM203.3 184.965L203.3 187.125C 203.94 186.995 204.26 186.645 204.26 186.075C 204.26 185.625 203.94 185.255 203.3 184.965zM213.828 189L206.808 189L206.808 187.455L210.393 183.765C 211.193 182.915 211.593 182.215 211.593 181.665C 211.593 181.255 211.463 180.925 211.203 180.675C 210.953 180.425 210.628 180.3 210.228 180.3C 209.428 180.3 208.843 180.71 208.473 181.53L208.473 181.53L206.733 180.51C 207.053 179.8 207.518 179.255 208.128 178.875C 208.748 178.485 209.438 178.29 210.198 178.29C 211.148 178.29 211.963 178.59 212.643 179.19C 213.323 179.78 213.663 180.58 213.663 181.59C 213.663 182.68 213.088 183.8 211.938 184.95L211.938 184.95L209.883 187.005L213.828 187.005L213.828 189zM220.568 183.54C 221.538 184.12 222.023 184.965 222.023 186.075C 222.023 187.045 221.683 187.81 221.003 188.37C 220.333 188.93 219.418 189.21 218.258 189.21C 217.088 189.21 216.168 188.93 215.498 188.37C 214.828 187.81 214.493 187.045 214.493 186.075C 214.493 184.975 214.973 184.13 215.933 183.54C 215.203 183.02 214.838 182.295 214.838 181.365C 214.838 180.395 215.163 179.64 215.813 179.1C 216.473 178.56 217.288 178.29 218.258 178.29C 219.238 178.29 220.048 178.56 220.688 179.1C 221.338 179.64 221.663 180.395 221.663 181.365C 221.663 182.295 221.298 183.02 220.568 183.54zM219.608 181.47C 219.608 181.09 219.483 180.79 219.233 180.57C 218.983 180.35 218.658 180.24 218.258 180.24C 217.858 180.24 217.533 180.35 217.283 180.57C 217.033 180.79 216.908 181.09 216.908 181.47C 216.908 181.86 217.033 182.165 217.283 182.385C 217.533 182.605 217.858 182.715 218.258 182.715C 218.658 182.715 218.983 182.605 219.233 182.385C 219.483 182.165 219.608 181.86 219.608 181.47zM219.503 186.87C 219.813 186.61 219.968 186.255 219.968 185.805C 219.968 185.355 219.813 185.005 219.503 184.755C 219.193 184.495 218.778 184.365 218.258 184.365C 217.738 184.365 217.323 184.495 217.013 184.755C 216.703 185.005 216.548 185.355 216.548 185.805C 216.548 186.255 216.703 186.61 217.013 186.87C 217.323 187.13 217.738 187.26 218.258 187.26C 218.778 187.26 219.193 187.13 219.503 186.87zM223.559 186.93L225.659 186.93L224.534 191.1L222.959 191.1L223.559 186.93zM232.994 181.935C 232.994 182.745 232.784 183.455 232.364 184.065L232.364 184.065L232.379 184.065L229.109 189L226.739 189L229.079 185.58C 227.989 185.57 227.099 185.225 226.409 184.545C 225.729 183.865 225.389 182.995 225.389 181.935C 225.389 180.855 225.739 179.98 226.439 179.31C 227.149 178.63 228.064 178.29 229.184 178.29C 230.304 178.29 231.219 178.63 231.929 179.31C 232.639 179.99 232.994 180.865 232.994 181.935zM227.444 181.935C 227.444 182.445 227.609 182.86 227.939 183.18C 228.269 183.49 228.684 183.645 229.184 183.645C 229.704 183.645 230.124 183.49 230.444 183.18C 230.774 182.86 230.939 182.445 230.939 181.935C 230.939 181.425 230.774 181.015 230.444 180.705C 230.124 180.395 229.704 180.24 229.184 180.24C 228.684 180.24 228.269 180.4 227.939 180.72C 227.609 181.03 227.444 181.435 227.444 181.935zM237.76 189.21C 236.45 189.21 235.42 188.715 234.67 187.725C 233.93 186.715 233.56 185.39 233.56 183.75C 233.56 182.11 233.93 180.79 234.67 179.79C 235.42 178.79 236.45 178.29 237.76 178.29C 239.09 178.29 240.12 178.79 240.85 179.79C 241.59 180.79 241.96 182.11 241.96 183.75C 241.96 185.39 241.59 186.715 240.85 187.725C 240.12 188.715 239.09 189.21 237.76 189.21zM239.905 183.75C 239.905 182.63 239.72 181.775 239.35 181.185C 238.99 180.595 238.46 180.3 237.76 180.3C 237.06 180.3 236.53 180.595 236.17 181.185C 235.81 181.775 235.63 182.63 235.63 183.75C 235.63 184.87 235.81 185.725 236.17 186.315C 236.53 186.895 237.06 187.185 237.76 187.185C 238.46 187.185 238.99 186.89 239.35 186.3C 239.72 185.71 239.905 184.86 239.905 183.75zM246.908 189.21C 245.598 189.21 244.568 188.715 243.818 187.725C 243.078 186.715 242.708 185.39 242.708 183.75C 242.708 182.11 243.078 180.79 243.818 179.79C 244.568 178.79 245.598 178.29 246.908 178.29C 248.238 178.29 249.268 178.79 249.998 179.79C 250.738 180.79 251.108 182.11 251.108 183.75C 251.108 185.39 250.738 186.715 249.998 187.725C 249.268 188.715 248.238 189.21 246.908 189.21zM249.053 183.75C 249.053 182.63 248.868 181.775 248.498 181.185C 248.138 180.595 247.608 180.3 246.908 180.3C 246.208 180.3 245.678 180.595 245.318 181.185C 244.958 181.775 244.778 182.63 244.778 183.75C 244.778 184.87 244.958 185.725 245.318 186.315C 245.678 186.895 246.208 187.185 246.908 187.185C 247.608 187.185 248.138 186.89 248.498 186.3C 248.868 185.71 249.053 184.86 249.053 183.75z" stroke="none" fill="#3734A9" fill-rule="nonzero" />
	<g>
        <path d="M484 289C 484 283.47714 488.47714 279 494 279L494 279L726 279C 731.5228 279 736 283.47714 736 289L736 289L736 349C 736 354.52286 731.5228 359 726 359L726 359L494 359C 488.47714 359 484 354.52286 484 349L484 349L484 289z" stroke="none" fill="#FFFFFF" fill-rule="nonzero" fill-opacity="0.8" />
	</g>
	<g>
        <path d="M484 345L497.081 345C 499.941 345 502.404 342.981 502.965 340.177L502.965 340.177L503.413 337.937C 504.027 334.867 506.897 332.785 510.005 333.155L510.005 333.155L521.044 334.469C 523.686 334.784 526.22 333.321 527.268 330.875L527.268 330.875L529.773 325.03C 531.371 321.301 536.132 320.2 539.205 322.849L539.205 322.849L544.522 327.433C 546.33 328.992 548.891 329.33 551.043 328.294L551.043 328.294L558.567 324.671C 560.114 323.926 561.907 323.88 563.49 324.544L563.49 324.544L572.785 328.442C 575.032 329.384 577.626 328.874 579.348 327.152L579.348 327.152L583.762 322.738C 585.163 321.337 587.164 320.718 589.111 321.083L589.111 321.083L597.03 322.568C 599.902 323.107 602.743 321.499 603.761 318.76L603.761 318.76L605.971 312.809C 607.283 309.277 611.488 307.814 614.709 309.77L614.709 309.77L621.065 313.629C 622.004 314.199 623.081 314.5 624.179 314.5L624.179 314.5L630.91 314.5C 633.121 314.5 635.152 315.715 636.197 317.663L636.197 317.663L642.675 329.735C 644.237 332.646 647.859 333.747 650.777 332.197L650.777 332.197L658.234 328.235C 660.237 327.171 662.667 327.327 664.517 328.637L664.517 328.637L667.587 330.812C 670.657 332.987 674.948 331.832 676.512 328.41L676.512 328.41L679.898 321.005C 680.874 318.87 683.006 317.5 685.354 317.5L685.354 317.5L693.417 317.5C 694.766 317.5 696.076 317.045 697.135 316.209L697.135 316.209L703.365 311.291C 704.424 310.455 705.734 310 707.083 310L707.083 310L713.109 310C 714.644 310 716.121 309.412 717.236 308.356L717.236 308.356L723.264 302.644C 724.379 301.588 725.856 301 727.391 301L727.391 301L732.5 301" stroke="#FF7F5C" stroke-width="2" fill="none" />
	</g>
    <path d="M503.634 304.21C 502.911 304.21 502.257 304.086 501.674 303.839C 501.095 303.587 500.617 303.23 500.239 302.768C 499.866 302.301 499.623 301.748 499.511 301.109L499.511 301.109L501.037 300.878C 501.191 301.494 501.513 301.975 502.003 302.32C 502.493 302.661 503.065 302.831 503.718 302.831C 504.124 302.831 504.497 302.768 504.838 302.642C 505.179 302.511 505.452 302.327 505.657 302.089C 505.867 301.846 505.972 301.557 505.972 301.221C 505.972 301.039 505.939 300.878 505.874 300.738C 505.813 300.598 505.727 300.477 505.615 300.374C 505.508 300.267 505.375 300.176 505.216 300.101C 505.062 300.022 504.892 299.954 504.705 299.898L504.705 299.898L502.122 299.135C 501.87 299.06 501.613 298.965 501.352 298.848C 501.091 298.727 500.85 298.57 500.631 298.379C 500.416 298.183 500.241 297.943 500.106 297.658C 499.971 297.369 499.903 297.019 499.903 296.608C 499.903 295.987 500.062 295.462 500.379 295.033C 500.701 294.599 501.135 294.272 501.681 294.053C 502.227 293.829 502.838 293.717 503.515 293.717C 504.196 293.726 504.805 293.848 505.342 294.081C 505.883 294.314 506.331 294.65 506.686 295.089C 507.045 295.523 507.293 296.05 507.428 296.671L507.428 296.671L505.86 296.937C 505.79 296.559 505.641 296.235 505.412 295.964C 505.183 295.689 504.903 295.479 504.572 295.334C 504.241 295.185 503.881 295.108 503.494 295.103C 503.121 295.094 502.778 295.15 502.465 295.271C 502.157 295.392 501.91 295.563 501.723 295.782C 501.541 296.001 501.45 296.253 501.45 296.538C 501.45 296.818 501.532 297.044 501.695 297.217C 501.858 297.39 502.059 297.527 502.297 297.63C 502.54 297.728 502.78 297.81 503.018 297.875L503.018 297.875L504.88 298.4C 505.113 298.465 505.377 298.554 505.671 298.666C 505.97 298.773 506.257 298.925 506.532 299.121C 506.812 299.317 507.043 299.578 507.225 299.905C 507.407 300.227 507.498 300.633 507.498 301.123C 507.498 301.632 507.395 302.08 507.19 302.467C 506.985 302.85 506.702 303.172 506.343 303.433C 505.988 303.69 505.578 303.883 505.111 304.014C 504.644 304.145 504.152 304.21 503.634 304.21zM513.036 304C 512.56 304.093 512.093 304.133 511.636 304.119C 511.178 304.105 510.77 304.016 510.411 303.853C 510.051 303.69 509.781 303.433 509.599 303.083C 509.435 302.77 509.347 302.453 509.333 302.131C 509.323 301.804 509.319 301.436 509.319 301.025L509.319 301.025L509.319 294.34L510.789 294.34L510.789 300.955C 510.789 301.258 510.791 301.522 510.796 301.746C 510.805 301.97 510.854 302.159 510.943 302.313C 511.111 302.602 511.377 302.768 511.741 302.81C 512.109 302.847 512.541 302.831 513.036 302.761L513.036 302.761L513.036 304zM507.87 297.616L507.87 296.44L513.036 296.44L513.036 297.616L507.87 297.616zM516.485 304.21C 515.925 304.21 515.456 304.107 515.078 303.902C 514.7 303.692 514.413 303.417 514.217 303.076C 514.025 302.731 513.93 302.353 513.93 301.942C 513.93 301.559 513.997 301.223 514.133 300.934C 514.268 300.645 514.469 300.4 514.735 300.199C 515.001 299.994 515.327 299.828 515.715 299.702C 516.051 299.604 516.431 299.518 516.856 299.443C 517.28 299.368 517.726 299.298 518.193 299.233C 518.664 299.168 519.131 299.102 519.593 299.037L519.593 299.037L519.061 299.331C 519.07 298.738 518.944 298.3 518.683 298.015C 518.426 297.726 517.983 297.581 517.353 297.581C 516.956 297.581 516.592 297.674 516.261 297.861C 515.929 298.043 515.698 298.346 515.568 298.771L515.568 298.771L514.203 298.351C 514.389 297.702 514.744 297.187 515.267 296.804C 515.794 296.421 516.494 296.23 517.367 296.23C 518.043 296.23 518.631 296.347 519.131 296.58C 519.635 296.809 520.003 297.173 520.237 297.672C 520.358 297.919 520.433 298.181 520.461 298.456C 520.489 298.731 520.503 299.028 520.503 299.345L520.503 299.345L520.503 304L519.208 304L519.208 302.271L519.46 302.495C 519.147 303.074 518.748 303.505 518.263 303.79C 517.782 304.07 517.189 304.21 516.485 304.21zM516.744 303.013C 517.159 303.013 517.516 302.941 517.815 302.796C 518.113 302.647 518.354 302.458 518.536 302.229C 518.718 302 518.837 301.762 518.893 301.515C 518.972 301.291 519.016 301.039 519.026 300.759C 519.04 300.479 519.047 300.255 519.047 300.087L519.047 300.087L519.523 300.262C 519.061 300.332 518.641 300.395 518.263 300.451C 517.885 300.507 517.542 300.563 517.234 300.619C 516.93 300.67 516.66 300.733 516.422 300.808C 516.221 300.878 516.041 300.962 515.883 301.06C 515.729 301.158 515.605 301.277 515.512 301.417C 515.423 301.557 515.379 301.727 515.379 301.928C 515.379 302.124 515.428 302.306 515.526 302.474C 515.624 302.637 515.773 302.768 515.974 302.866C 516.174 302.964 516.431 303.013 516.744 303.013zM526.366 304C 525.89 304.093 525.424 304.133 524.966 304.119C 524.509 304.105 524.101 304.016 523.741 303.853C 523.382 303.69 523.111 303.433 522.929 303.083C 522.766 302.77 522.677 302.453 522.663 302.131C 522.654 301.804 522.649 301.436 522.649 301.025L522.649 301.025L522.649 294.34L524.119 294.34L524.119 300.955C 524.119 301.258 524.122 301.522 524.126 301.746C 524.136 301.97 524.185 302.159 524.273 302.313C 524.441 302.602 524.707 302.768 525.071 302.81C 525.44 302.847 525.872 302.831 526.366 302.761L526.366 302.761L526.366 304zM521.2 297.616L521.2 296.44L526.366 296.44L526.366 297.616L521.2 297.616zM530.529 304.203C 530.007 304.203 529.568 304.119 529.213 303.951C 528.859 303.783 528.569 303.564 528.345 303.293C 528.126 303.018 527.958 302.719 527.841 302.397C 527.725 302.075 527.645 301.76 527.603 301.452C 527.561 301.144 527.54 300.873 527.54 300.64L527.54 300.64L527.54 296.44L529.024 296.44L529.024 300.157C 529.024 300.451 529.048 300.754 529.094 301.067C 529.146 301.375 529.239 301.662 529.374 301.928C 529.514 302.194 529.708 302.409 529.955 302.572C 530.207 302.735 530.534 302.817 530.935 302.817C 531.197 302.817 531.444 302.775 531.677 302.691C 531.911 302.602 532.114 302.462 532.286 302.271C 532.464 302.08 532.601 301.828 532.699 301.515C 532.802 301.202 532.853 300.822 532.853 300.374L532.853 300.374L533.763 300.717C 533.763 301.403 533.635 302.01 533.378 302.537C 533.122 303.06 532.753 303.468 532.272 303.762C 531.792 304.056 531.211 304.203 530.529 304.203zM533.028 304L533.028 301.816L532.853 301.816L532.853 296.44L534.33 296.44L534.33 304L533.028 304zM538.905 304.203C 537.985 304.203 537.236 304 536.658 303.594C 536.079 303.188 535.724 302.616 535.594 301.879L535.594 301.879L537.092 301.648C 537.185 302.04 537.4 302.35 537.736 302.579C 538.076 302.803 538.499 302.915 539.003 302.915C 539.46 302.915 539.817 302.822 540.074 302.635C 540.335 302.448 540.466 302.192 540.466 301.865C 540.466 301.674 540.419 301.52 540.326 301.403C 540.237 301.282 540.048 301.167 539.759 301.06C 539.469 300.953 539.028 300.82 538.436 300.661C 537.787 300.493 537.271 300.313 536.889 300.122C 536.511 299.926 536.24 299.7 536.077 299.443C 535.918 299.182 535.839 298.867 535.839 298.498C 535.839 298.041 535.96 297.642 536.203 297.301C 536.445 296.96 536.786 296.697 537.225 296.51C 537.668 296.323 538.186 296.23 538.779 296.23C 539.357 296.23 539.873 296.321 540.326 296.503C 540.778 296.685 541.145 296.944 541.425 297.28C 541.705 297.611 541.873 298.001 541.929 298.449L541.929 298.449L540.431 298.722C 540.379 298.358 540.209 298.071 539.92 297.861C 539.63 297.651 539.255 297.537 538.793 297.518C 538.349 297.499 537.99 297.574 537.715 297.742C 537.439 297.905 537.302 298.132 537.302 298.421C 537.302 298.589 537.353 298.731 537.456 298.848C 537.563 298.965 537.768 299.077 538.072 299.184C 538.375 299.291 538.823 299.42 539.416 299.569C 540.05 299.732 540.554 299.914 540.928 300.115C 541.301 300.311 541.567 300.547 541.726 300.822C 541.889 301.093 541.971 301.422 541.971 301.809C 541.971 302.556 541.698 303.141 541.152 303.566C 540.61 303.991 539.861 304.203 538.905 304.203z" stroke="none" fill="#3734A9" fill-rule="nonzero" />
</g>
</svg>